<svg xmlns="http://www.w3.org/2000/svg" viewBox="0 0 14 13.65"><title>github</title><path d="M7 0a7 7 0 0 0-2.21 13.65.35.35 0 0 0 .48-.34v-1.19c-1.95.42-2.36-.94-2.36-.94a1.85 1.85 0 0 0-.78-1c-.64-.43 0-.43 0-.43a1.47 1.47 0 0 1 1.07.72 1.49 1.49 0 0 0 2 .58 1.5 1.5 0 0 1 .44-.94c-1.55-.18-3.19-.78-3.19-3.46a2.71 2.71 0 0 1 .72-1.88 2.52 2.52 0 0 1 .07-1.85s.59-.19 1.92.72a6.63 6.63 0 0 1 3.5 0c1.34-.91 1.92-.72 1.92-.72a2.51 2.51 0 0 1 .07 1.85 2.7 2.7 0 0 1 .72 1.88c0 2.69-1.64 3.28-3.2 3.45a1.67 1.67 0 0 1 .48 1.3v1.92a.35.35 0 0 0 .48.34A7 7 0 0 0 7 0z" fill="#fff" fill-rule="evenodd"/></svg>