<svg xmlns="http://www.w3.org/2000/svg" viewBox="0 0 14 14"><title>insta</title><path d="M7 9.81a2.74 2.74 0 1 0-2.75-2.75A2.75 2.75 0 0 0 7 9.81zM7 5a2 2 0 1 1-2 2 2 2 0 0 1 2-2zm3 .22h4v6A2.75 2.75 0 0 1 11.25 14H2.79A2.79 2.79 0 0 1 0 11.25v-6h3.94a3.53 3.53 0 0 0-.51 1.81 3.56 3.56 0 1 0 7.13 0A3.53 3.53 0 0 0 10 5.25zM11.25 0H4.08v2.92H3.5V0h-.58v2.92h-.59V0a2.79 2.79 0 0 0-.58.2v2.72h-.58V.52A2.74 2.74 0 0 0 0 2.75v1.92h4.36a3.55 3.55 0 0 1 5.26 0H14V2.75A2.75 2.75 0 0 0 11.25 0zm1.59 3.07a.43.43 0 0 1-.43.43h-1.48a.43.43 0 0 1-.43-.43V1.6a.43.43 0 0 1 .43-.43h1.47a.43.43 0 0 1 .43.43v1.47z"/><path d="M7 9.81a2.74 2.74 0 1 0-2.75-2.75A2.75 2.75 0 0 0 7 9.81zM7 5a2 2 0 1 1-2 2 2 2 0 0 1 2-2zm3 .22h4v6A2.75 2.75 0 0 1 11.25 14H2.79A2.79 2.79 0 0 1 0 11.25v-6h3.94a3.53 3.53 0 0 0-.51 1.81 3.56 3.56 0 1 0 7.13 0A3.53 3.53 0 0 0 10 5.25zM11.25 0H4.08v2.92H3.5V0h-.58v2.92h-.59V0a2.79 2.79 0 0 0-.58.2v2.72h-.58V.52A2.74 2.74 0 0 0 0 2.75v1.92h4.36a3.55 3.55 0 0 1 5.26 0H14V2.75A2.75 2.75 0 0 0 11.25 0zm1.59 3.07a.43.43 0 0 1-.43.43h-1.48a.43.43 0 0 1-.43-.43V1.6a.43.43 0 0 1 .43-.43h1.47a.43.43 0 0 1 .43.43v1.47z"/></svg>