<svg xmlns="http://www.w3.org/2000/svg" viewBox="0 0 41 41"><title>star</title><path d="M20.56 22.23c0 .07-3-4.14-4.05-5.51 0 0 1 1.37 0 0 1-4.07 4-16.2 4-16.2s.04 16.29.05 21.71z" fill="#fff" stroke="#000" stroke-linejoin="round"/><path d="M20.56.5v21.65l4-5.48S21.54 4.5 20.56.5z" stroke="#000" stroke-linejoin="round"/><path d="M24.58 16.67l15.92-.95-19.94 6.51z" fill="#fff" stroke="#000" stroke-linejoin="round"/><path d="M20.52 22.2l19.93-6.46L27 24.8z" stroke="#000" stroke-linejoin="round"/><path d="M32.8 40.34L27 24.75l-6.49-2.54z" fill="#fff" stroke="#000" stroke-linejoin="round"/><path d="M33 40.36L20.72 22.22v7.48z" stroke="#000" stroke-linejoin="round"/><path d="M8.11 40.5l12.44-18.1v7.53z" fill="#fff" stroke="#000" stroke-linejoin="round"/><path d="M20.52 22.2L8.11 40.36l5.84-15.66z" stroke="#000" stroke-linejoin="round"/><path d="M20.54 22.18l-6.6 2.54L.5 15.65l20 6.53" fill="#fff" stroke="#000" stroke-linejoin="round"/><path d="M20.56 22.24L.5 15.64l16 1z" stroke="#000" stroke-linejoin="round"/></svg>