<svg xmlns="http://www.w3.org/2000/svg" viewBox="0 0 14 14"><title>youtube</title><path d="M5.41 7.89h-.54v2.93h-.53V7.89h-.55v-.5h1.62v.5zm3.15 1v1.4a.46.46 0 0 1-.43.56.54.54 0 0 1-.45-.23v.19h-.47V7.39h.47v1.1a.57.57 0 0 1 .42-.23.51.51 0 0 1 .46.63zm-.48 0A.31.31 0 0 0 8 8.72a.19.19 0 0 0-.25 0l-.1.08v1.58l.11.09a.2.2 0 0 0 .24 0 .29.29 0 0 0 0-.17V8.92zM6.71 5.5a.22.22 0 0 0 .21-.25V4a.21.21 0 1 0-.42 0v1.25a.22.22 0 0 0 .21.25zm-.43 4.71a.49.49 0 0 1-.28.19c-.1 0-.13-.07-.13-.17V8.29h-.46v2.11c0 .51.35.52.6.37a1 1 0 0 0 .27-.24v.28h.47V8.29h-.47v1.92zM14 2.92v8.17A2.92 2.92 0 0 1 11.08 14H2.92A2.92 2.92 0 0 1 0 11.08V2.92A2.92 2.92 0 0 1 2.92 0h8.17A2.92 2.92 0 0 1 14 2.92zM7.84 5.5a.38.38 0 0 0 .34.5.78.78 0 0 0 .57-.33v.26h.5V3.28h-.5v2a.52.52 0 0 1-.29.2c-.11 0-.13-.07-.13-.18v-2h-.49v2.2zM6 4v1.3a.64.64 0 0 0 .71.7.68.68 0 0 0 .71-.71V4a.69.69 0 0 0-.71-.71A.68.68 0 0 0 6 4zM4.14 2.33l.66 2.14v1.46h.56V4.47L6 2.33h-.56l-.35 1.44-.39-1.44h-.56zm6.75 6.81c0-1.74-.14-2.4-1.23-2.48s-4.3-.07-5.31 0-1.23.74-1.24 2.48.14 2.4 1.23 2.48 4.3.07 5.31 0 1.23-.74 1.24-2.48zM10.3 9v.61h-.9v.48c0 .19 0 .35.21.35s.21-.13.21-.35v-.18h.48v.19a.66.66 0 0 1-.7.78.68.68 0 0 1-.68-.78V9a.7.7 0 0 1 .71-.74.64.64 0 0 1 .67.74zm-.49 0c0-.17 0-.3-.21-.3s-.2.09-.2.3v.22h.41V9z"/></svg>