<svg version="1" xmlns="http://www.w3.org/2000/svg" width="533.333" height="533.333" viewBox="0 0 400.000000 400.000000"><path d="M0 40.5V81h26.5c20.8 0 27.3.3 30.2 1.5 2.1.8 15.5 4.8 29.8 9s33.4 9.9 42.3 12.6c16 4.8 16.6 4.9 26.2 4.3 5.4-.3 13.1-.9 17.2-1.3l7.3-.8 9.5 6.7c5.2 3.6 10.1 7 10.8 7.4.7.4 3.2-1 6.5-3.7 32.9-27.8 74.3-33 112.2-14 36.2 18.1 58.4 59.5 54.2 100.8-.8 7.9-4.3 23.6-5.8 26.5-.4.8-1.7 3.7-2.8 6.3-3 7.1-11.9 20.3-18.6 27.5-10 10.9-22.7 19.4-36 24.5-8.1 3-19.8 5.9-19 4.7.3-.5-.2-1.3-1.1-1.8-1.5-.8-1.2-1.1 1.4-1.7 1.8-.3 3.2-1 3.2-1.4 0-1.9-2.7-6.1-3.9-6.1-2.2 0-6-4-5.4-5.6.3-.8.1-1.4-.5-1.4s-1.8-.3-2.8-.7c-1.2-.4-1.5-.3-1 .5s.2 1-.8.6c-.9-.3-1.6-1.2-1.6-2s-.5-1.3-1.2-1.1c-.7.1-1.4-1.2-1.8-2.8-.3-1.7-1.2-3.1-2-3.1-.8-.1-2.1-.2-2.8-.3-.8-.1-1.1-.8-.8-1.9.4-1.2-.1-2.5-1.3-3.6-1.1-1-2.3-3-2.6-4.5-.5-2.3-1.1-2.7-4.6-3-3.3-.1-4.2.2-4.6 1.8-.3 1.2-1.7 2.2-3.4 2.6-3 .7-3.8 2-1.6 2.9.9.3.7.8-.5 1.9-1.4 1.1-1.5 1.6-.5 2.6.9 1 .8 1.5-.5 2.5-1.3.9-1.6 2.5-1.3 7.1.2 3.3 0 5.4-.4 4.7-.5-.8-1.3 0-2.4 2.3-1 2.1-2.6 3.7-4.2 4.1-3.4.8-3.2 2.1.8 3.8 6.3 2.8.4 1.6-7.1-1.5-13.4-5.3-23.4-12.1-34.7-23.5-5.8-5.9-12.6-15-14.1-18.8-.5-1.3-.9-1.4-2-.5-1.1.9-1.4.6-1.4-1.9 0-1.7-.8-5-1.8-7.4-2.6-6-6.3-16.9-6.7-19.3-2.1-15.7-2.6-23.2-2.1-29.5 2-22.6 8.3-39.5 21.4-56.8 5.3-7 5.4-7.3 3.7-9.2-7.8-8.6-24.1 10.7-44.5 52.5-4.8 9.9-10.5 22.3-12.6 27.5l-3.9 9.5.1 19c.1 19.3 1.8 34.6 5.1 44.8.8 2.7 1.3 5 1.1 5.3-.3.2-7 1.8-14.9 3.6l-14.4 3.1-27.3-1.5c-15-.8-27.5-1.8-27.8-2.1-.6-.6 4.2-50.7 5.2-54.5.6-1.9.3-2.2-2.6-2.2-2.4 0-3.1-.4-2.6-1.5.8-2.1-.3-4.5-2.1-4.5-1.1 0-1.4-.9-.9-3.8.3-2 1-7.6 1.6-12.3l1.2-8.7-4.2-11.3c-2.3-6.3-4.4-11.6-4.7-11.9-.4-.3-.3.3.1 1.4.3 1 .2 2.4-.3 3-.4.6-1.1 3.3-1.4 6.1-.6 5.4-2.6 21.5-3.2 25.5-.2 1.4-.7 6.2-1.1 10.7l-.7 8.2-21.3-.4c-17.3-.2-21.4-.1-21.4 1 0 .7.6 1.6 1.2 1.8 1 .4 1 .6.1.6-1 .1-1.3 3-1.3 11.2 0 6.5.4 10.8.9 10.4.5-.3 1.2-.1 1.6.5.3.5-.1 1-.9 1-1.4 0-1.6 7.6-1.6 73.5V400h400V122.5l-2.2-1c-2.4-1.1-4.3-7.2-2.5-7.8.5-.1-2.9-3.2-7.7-6.7-4.9-3.7-8.4-7-8.2-7.7.3-.7 0-1.5-.6-1.9-.7-.4-.8-.3-.4.4 1.2 1.9-.3 1.4-4.2-1.5-8.5-6.3-13-10.6-12.6-11.8.3-.7.1-1.6-.5-2-.7-.3-.8 0-.5.9.9 2.2-1 2-3.1-.4-1.8-2-1.8-2 .1-1.9 1 .1 11 .1 22.2.1L400 81V0H0v40.5zm324 40.9c0 1.1-1.9 1.5-2.5.6-.3-.5.1-1 .9-1 .9 0 1.6.2 1.6.4zm4 1.1c0 .8.4 1.5 1 1.5.5 0 .7-.7.4-1.5-.4-.8-.2-1.5.4-1.5.5 0 1.2 1.1 1.4 2.5.6 2.9.6 3-3.3 1-1.6-.9-2.7-2-2.4-2.5.9-1.5 2.5-1.2 2.5.5zm20-.1c0 .9.8 1.2 2.5.8 1.4-.2 2.2-.8 1.9-1.3-1.2-1.9 1.3-.7 4.3 2.1 2.1 2 3 3.6 2.6 4.7-.5 1.3-.2 1.5 1.9 1 1.9-.5 3.1 0 5.2 2.2 1.6 1.6 2.9 3.3 2.9 3.8.1.4.9.7 1.6.6 1.7-.2 7.3 4.2 6.4 5-.3.3-.2 1.1.2 1.7.5.8 1 .9 1.4.2.4-.7 1.5-.4 3.1.8 2.4 1.8 2.4 1.9.6 3.3-1.2.9-1.7 2-1.3 3.1.5 1.3.2 1.5-2.1 1-1.5-.4-3.6-1.3-4.7-2-2.1-1.4-17.5-9.7-26.2-14.1-5-2.6-5.3-2.9-5.4-6.8l-.2-4-.6 3.7-.6 3.7-4-2.2c-3.2-1.8-4.1-2.9-4.3-5.5l-.3-3.2h7.5c5.8 0 7.6.3 7.6 1.4zm41.9 41.3c1.3 2.8 1.3 2.8-.8.9-2.2-2-2.7-3.6-1.3-3.6.5 0 1.4 1.2 2.1 2.7zM51.1 197.1c-.9 2.2-1 2.2-1 .3-.1-1.1.2-2.4.6-2.7 1.2-1.2 1.4 0 .4 2.4zm-1.6 16.1c-1.9 14-3.2 21.3-3.4 18.1 0-1.1.8-8.1 1.9-15.5 1.1-7.3 2-13.9 2-14.7 0-.8.3-1.2.6-.9.3.4-.2 6.2-1.1 13zM172 200.4c0 .3-.4.8-1 1.1-.5.3-1 .1-1-.4 0-.6.5-1.1 1-1.1.6 0 1 .2 1 .4zm215.9 26.2c.3 1.6.1 1.7-1.3.5-1.9-1.6-2.1-3.4-.3-2.9.6.3 1.4 1.3 1.6 2.4zm-347.2 2.6c.5.7 1 2.3 1.1 3.5.1 1.8-.5 2.3-2.4 2.3-2.5 0-3.1-2-1.8-5.4.7-1.9 1.8-2 3.1-.4zm-21.6 2.2c-.6.7-.8 2.2-.4 3.4.4 1.6 0 2.7-1.2 3.6-1.1.8-1.6 2-1.2 3 .4.9.2 1.6-.3 1.6-.6 0-1 1.4-1 3.1 0 1.7-.4 2.8-1 2.4-1.7-1.1.6-12.5 2.6-12.5.8 0 1.3-.8 1.2-1.8-.3-3.4.2-5.3 1.2-4.7.8.5.8 1.1.1 1.9zM389 230c0 .5-.7 1-1.6 1-.8 0-1.2-.5-.9-1 .3-.6 1-1 1.6-1 .5 0 .9.4.9 1zm-361 1c0 .5-.7 1-1.6 1-1.4 0-1.4.3-.4 1.5 1.1 1.3 1 1.4-.4.9-1.9-.7-2.1-3-.3-3.7 2-.9 2.7-.8 2.7.3zm7.1 1.7c-.8 1.5-1 1.5-1.1.2 0-1.7 1-3.2 1.8-2.5.2.3-.1 1.3-.7 2.3zm127.8 4.3c-.1 3.8-.6 7-1 7-.5 0-.9-3.2-.9-7 0-4.2.4-7 1-7 .7 0 1 2.7.9 7zm229.9-5.8c-.3.7-1.3 1.5-2.4 1.7-1.6.3-1.7.1-.5-1.3 1.6-1.9 3.4-2.1 2.9-.4zM10 235c0 1.1-.4 2-.9 2s-.7-.9-.4-2c.3-1.1.7-2 .9-2 .2 0 .4.9.4 2zm164 2.5c0 2.5-.3 4.5-.8 4.5-.4 0-.6-2-.4-4.5.2-2.5.6-4.5.8-4.5.2 0 .4 2 .4 4.5zm-128.3 1.2c-.3 1-.5.2-.5-1.7s.2-2.7.5-1.8c.2 1 .2 2.6 0 3.5zm328-2.5c-.3.8-.6.5-.6-.6-.1-1.1.2-1.7.5-1.3.3.3.4 1.2.1 1.9zm-339.6 4.1c-.7.7-.8.3-.4-1.3s.3-2.1-.5-1.6c-.7.4-1.3 1.9-1.3 3.4-.1 1.7-.3 2.1-.6.9-.2-.9-1.1-1.7-1.8-1.7-.8 0-1.9.8-2.5 1.7-.8 1.3-1.3 1.4-1.6.5-.3-.6-1.1-1.2-1.7-1.2-.7 0-1.8-.9-2.5-2-1.6-2.5-.9-2.8 7.3-3.2 5.2-.3 6 0 6.3 1.6.2 1-.1 2.3-.7 2.9zM41 238c0 1.1-.4 2-.9 2-.7 0-.8-1.7-.2-3.8.4-1 1.1.2 1.1 1.8zm17 2c0 .5-.5 1-1.1 1-.5 0-.7-.5-.4-1 .3-.6.8-1 1.1-1 .2 0 .4.4.4 1zm-11 3c0 .5-.2 1-.4 1-.3 0-.8-.5-1.1-1-.3-.6-.1-1 .4-1 .6 0 1.1.4 1.1 1zm-36.3 5.6c-.5 3.9-1.7 5.9-1.7 2.8 0-2.4 1.1-6.4 1.7-6.4.3 0 .2 1.6 0 3.6zm12.4-1.3c-1 .9-1.1.8-.5-.6.3-1 .9-1.5 1.2-1.2.3.3 0 1.1-.7 1.8zm16.5 2.5c-1.1 1-1.5-.4-.8-2.8l.7-2.5.3 2.3c.2 1.3.1 2.6-.2 3zm-34.5 3.5c-.8.8-1.1.5-1.1-.9 0-2.7 1.4-4.1 1.8-1.9.2.9-.1 2.2-.7 2.8zm355.6 3.9c-.3.7-.5.2-.5-1.2s.2-1.9.5-1.3c.2.7.2 1.9 0 2.5zm25.7 28.4c1 2.5-.1 2.9-1.4.5-.6-1.2-.7-2.1-.1-2.1.5 0 1.2.7 1.5 1.6zM288 293c0 .5-.5 1-1.1 1-.5 0-.7-.5-.4-1 .3-.6.8-1 1.1-1 .2 0 .4.4.4 1zm-7.5 4.5c0 1.1-.7 2.1-1.6 2.3-1.8.3-3.3-2.3-2.3-3.9 1-1.7 3.9-.5 3.9 1.6z"/><path d="M360.7 96.2c.8 5.9 1.5 6.2 1.2.5-.2-2.6-.6-4.7-1-4.7s-.5 1.9-.2 4.2zm-8.6-1.6c0 1.1.3 1.4.6.6.3-.7.2-1.6-.1-1.9-.3-.4-.6.2-.5 1.3zm17 5.6c0 1.3.4 3.2.9 4.3.6 1.5.8.9.7-2.3-.1-2.3-.5-4.2-.9-4.2-.5 0-.8 1-.7 2.2zm-2.4-12.1c1.2 1.2 2.4 2.1 2.7 1.8.2-.2-.8-1.3-2.2-2.3l-2.7-1.9 2.2 2.4zm31 7.5c-.3.3-.3 1.2 0 1.9.2.8-.5 2-1.6 2.7-1.2.7-2.1 1.9-2.1 2.6 0 .7-1.4 1.5-3.1 1.9l-3.2.6 2.4 1.8c2.9 2.2 4.3 2.4 3.6.5-.6-1.5 1.4-3.8 2.9-3.5 2.8.5 3.4-.4 3.4-4.6 0-4.1-.7-5.4-2.3-3.9zM381 99.4c0 .2.8 1 1.8 1.7 1.5 1.3 1.6 1.2.3-.4s-2.1-2.1-2.1-1.3zm17 9.5c0 2.2.5 4.3 1 4.6.6.4 1-1.2 1-3.9 0-2.5-.4-4.6-1-4.6-.5 0-1 1.8-1 3.9zm-379 .5c0 .2.9.6 2 .9 1.1.3 1.8.1 1.4-.4-.5-.9-3.4-1.3-3.4-.5zm5.3.9c.2.6 2.6 1.8 5.3 2.5 2.7.8 7 2.2 9.6 3.2 2.6 1 4.9 1.6 5.1 1.4 1.1-1.2-.7-5.1-2.9-6.1-3-1.4-3.2 0-.1 1.6 2.1 1.1 2.1 1.1-.5.6-1.5-.3-4-1-5.5-1.7-1.5-.6-3.1-1.1-3.4-1-.3 0-2.2-.3-4.3-.8-2.6-.6-3.6-.5-3.3.3zm373.4 4.7c.6.8 1.3 2.6 1.6 4l.4 2.5.2-2.6c0-1.5-.7-3.3-1.6-4-1.6-1.2-1.7-1.2-.6.1zM3.1 118.5c.8.9 3.2 1.8 5.2 2.2 3.3.5 3.7.3 3.7-1.6 0-1.9-.6-2.1-5.2-2.1-4.7 0-5.1.2-3.7 1.5zm9.9-.5c0 .5 1 1 2.3 1 1.8 0 1.9-.2.7-1-1.9-1.3-3-1.3-3 0zm6.4 2c0 1.8.7 2 6 2 5.2 0 5.8-.2 4.6-1.4-.8-.7-3.5-1.6-6-1.9-4.1-.5-4.6-.4-4.6 1.3zM.5 120c-.3.5-.1 1 .4 1 .6 0 1.1-.5 1.1-1 0-.6-.2-1-.4-1-.3 0-.8.4-1.1 1zm15.3.7c.7.3 1.6.2 1.9-.1.4-.3-.2-.6-1.3-.5-1.1 0-1.4.3-.6.6zM0 144v22h10.2l-.4 3.5c-.2 1.9 0 3.5.4 3.5s.8-1 .8-2.3c0-3.2 1.5-5.1 3.1-4.1.8.4 4 .7 7.1.6 5-.2 5.8 0 5.8 1.5.1 1.7.1 1.7 1 .1.9-1.4 2.3-1.6 10.5-1.1l9.5.6-1.9-5.4c-1-3-2.3-6.5-2.9-7.9-.6-1.4-2-5-3.1-8s-2.6-6.9-3.2-8.5c-.7-1.7-1.3-3.4-1.3-3.9-.1-1-.7-1.1-14.6-2.1-5.2-.3-11.6-1.1-14.2-1.7l-4.8-1 .6-3.9c.5-3.1.4-3.9-.9-3.9-1.4 0-1.6 2.7-1.7 22zm7.5 4c-.3.5-1 1-1.6 1-.5 0-.9-.5-.9-1 0-.6.7-1 1.6-1 .8 0 1.2.4.9 1zm28.5-.6c0 .3-.4.8-1 1.1-.5.3-1 .1-1-.4 0-.6.5-1.1 1-1.1.6 0 1 .2 1 .4zm-28.3 3.2c-.3.3-1.2.4-1.9.1-.8-.3-.5-.6.6-.6 1.1-.1 1.7.2 1.3.5z"/><path d="M4.9 124.7c-.5 1.5-.8 3.2-.5 4 .8 2.1 3.3 1.5 4-1 .9-3.4.7-4.4-.9-5.1-1.1-.4-1.9.3-2.6 2.1zm7.1-.3c0 .8.6 1.7 1.3 1.9.8.4.7.6-.3.6-.8.1-2.1 1-2.8 2.2-1.1 1.7-1.1 2 0 1.4 4.5-2.6 6.7-7.5 3.3-7.5-.8 0-1.5.6-1.5 1.4zm6.7-.8c-1 1.1-.9 7.4.2 7.4 1.5 0 2.9-2.4 2.6-4.9-.2-2.5-1.6-3.7-2.8-2.5zm5.3 2.3c0 1.1-.5 2.3-1 2.6-1.5.9-.2 2.5 2.1 2.5 1.4 0 1.9-.7 1.9-2.5 0-1.4 0-2.8.1-3.3 0-.4-.7-.8-1.5-1-1-.2-1.6.4-1.6 1.7zm6.6.2c-1.2 3.4-1 5.4.4 5.4.8 0 1.7-1.1 1.8-2.4.4-2.7-1.5-5.3-2.2-3zm65.4 8.6c0 3.2-.2 12.3-.5 20.3l-.6 14.5 8.6-16.9c4.7-9.3 8.2-17.2 7.8-17.7-.9-.8-13.5-5.9-14.6-5.9-.4 0-.7 2.6-.7 5.7zm162 11.2c-7.6 1.6-19 8.4-19 11.3 0 .7.5.6 1.4-.1 1.1-.9 1.4-.9 1.3.1 0 .7.1 2.2.2 3.3l.2 2 1.6-2c1.7-2.2 1.6-2-2.2 7.2-5.8 14.1-5.6 32 .6 45.5 1.8 3.7 3.6 6.8 4 6.8.5 0 .9.5.9 1.2 0 .6-1.3-.1-2.9-1.6-1.6-1.5-3.1-2.6-3.4-2.4-.3.1-.9-.1-1.4-.6-.4-.5-.3-.6.4-.2.6.3 1.4.2 1.7-.3 1-1.6-.8-2-2.6-.7-1.6 1.1-1.5 1.6 1.3 5 2.4 2.8 3.8 3.6 6.2 3.6 8.5-.1 16.5 1.3 20.8 3.6 6.1 3.1 8.5 3 16.4-.7 13.4-6.3 24.4-22 24.5-34.7v-3.3l-4.7.6c-2.7.4-6.1 1.3-7.8 2-1.6.8-4.7 1.7-6.7 2-2.4.4-3.8 1.1-3.8 2 0 2.9-3.7 5.4-7.2 5-1.8-.2-4.3-.1-5.6.2-2.4.6-2.4.6-1.8 11.9.3 6.3.1 11.6-.4 11.9-1.1.7-1.8-21.2-.8-22.9.4-.6.8-7.1.8-14.4 0-12.8-.1-13.3-2.2-14.2-1.8-.7-1.9-.9-.5-.9.9-.1 1.7-.6 1.7-1.2s-.6-.9-1.4-.6c-.8.3-1.7-.1-2-.9-.3-.9-.2-1.2.5-.9.5.4 2-.4 3.3-1.8 4.5-4.9 18.6-4.7 29 .4l5.8 2.9-4.6-5c-2.5-2.7-4.3-5.5-4.1-6.2.7-1.9-7.7-8.1-14.5-10.8-5.9-2.4-17.2-3.4-23-2.1zm7.4 26.3c1 3.9.7 29.8-.4 29.8-.5 0-1-1.4-1-3 0-1.7-.4-3-1-3-.5 0-1 1.3-1 3 0 2-.5 3-1.5 3-1.3 0-1.5-2.3-1.5-14.8 0-15.2.5-17.2 4.1-17.2.9 0 1.9 1 2.3 2.2z"/><path d="M298 161.5c1.3 1.4 2.6 2.5 2.8 2.5.3 0-.5-1.1-1.8-2.5s-2.6-2.5-2.8-2.5c-.3 0 .5 1.1 1.8 2.5zM.3 206.2c.4 1.4 6.2 1.2 8.7-.3 1-.5-.3-.8-3.8-.9-3.9 0-5.2.4-4.9 1.2zM250.5 228c.3.5 1.6 1 2.8 1 1.8 0 1.9-.2.7-1-2-1.3-4.3-1.3-3.5 0zm2.3 3.1c-1 .5-1.8 1.9-1.8 2.9 0 1.5.7 2 2.9 2 2.3 0 3.1.6 4 3 1.1 3.2.9 3.2 6.8.2 1.6-.9 2.3-.8 2.6.1.6 1.7 1.7.4 3.2-4 1-2.8 1-4 .2-4.5-1.6-1.1-3.9-1-3.3.1.3.4-1.3.5-3.7 0-5.7-1.1-8.8-1-10.9.2zM239 261.4c0 .8.4 1.7.9 2 .5.4.7-.3.4-1.4-.6-2.3-1.3-2.6-1.3-.6zm-128.3 6.3c-.4.3-.7 2-.6 3.7l.1 3.1.9-3.4c1-3.3.8-4.7-.4-3.4zm-8.7 1.8c0 .8.2 1.5.4 1.5s.6-.7 1-1.5c.3-.8.1-1.5-.4-1.5-.6 0-1 .7-1 1.5zm189.8 21.2c.7.3 1.6.2 1.9-.1.4-.3-.2-.6-1.3-.5-1.1 0-1.4.3-.6.6z"/></svg>